<svg width="100%" height="100%" version="1.1" 
xmlns="http://www.w3.org/2000/svg">
<line x1="0" y1="0" x2="200" y2="200"
style="stroke:#ccc;stroke-width:2"/>
<rect x="200" y="0" width="100" height="100"
style="fill:red;stroke-width:5;stroke:yellow" />
<circle cx="250" cy="250" r="50" 
style="fill:#f7f7f7;stroke:black;stroke-width:2"/>
<text x="0" y="200" style="font-size:24">一些文字</text>
<g x="300" y='0'>
  <title>Layer 1</title>
  <path stroke="#000" id="svg_1" d="m231.09204,151.27681c-14.11874,0 -25.5533,11.20319 -25.5533,25.03626c0,13.82352 11.43456,25.03308 25.5533,25.03308c14.10576,0 25.54681,-11.20955 25.54681,-25.03308c0.00325,-13.83306 -11.43456,-25.03626 -25.54681,-25.03626zm0,43.71248c-10.52901,-0.02544 -19.03921,-8.36344 -19.06517,-18.67305c0.02272,-10.31279 8.53616,-18.65397 19.06517,-18.67941c10.52252,0.02544 19.03272,8.36662 19.05544,18.67941c-0.02272,10.30961 -8.53291,18.64761 -19.05544,18.67305zm0,-45.38835c1.79487,0 3.24569,-1.42465 3.24569,-3.18319l0,-15.42625c-0.00649,-1.75855 -1.45407,-3.18001 -3.24569,-3.18001c-1.79487,0 -3.24893,1.42783 -3.24569,3.18637l0,15.42307c0,1.75219 1.45082,3.18001 3.24569,3.18001zm10.4284,2.02885c0.40571,0.16854 0.82765,0.24168 1.23985,0.24486c1.2788,0 2.48295,-0.74094 3.00226,-1.96525l6.024,-14.25601c0.68159,-1.62499 -0.10062,-3.48212 -1.75592,-4.1531c-1.65855,-0.67098 -3.55727,0.09858 -4.24536,1.72039l-6.02075,14.25919c-0.68484,1.62181 0.10062,3.48212 1.75592,4.14992zm8.8445,5.79081c0.63291,0.61692 1.46381,0.93174 2.2947,0.93174s1.66179,-0.31164 2.2947,-0.93174l11.13271,-10.91699c1.26906,-1.24021 1.26582,-3.25316 0,-4.49972c-1.27231,-1.24021 -3.32683,-1.24021 -4.59265,0.00636l-11.12946,10.91063c-1.26906,1.24339 -1.26906,3.25634 0,4.49972zm5.91689,8.66236c0.51282,1.22431 1.72346,1.96207 2.99577,1.96207c0.4122,0 0.83414,-0.0795 1.2431,-0.24804l14.54068,-5.90529c1.65855,-0.67098 2.444,-2.53447 1.75592,-4.15628s-2.58357,-2.39137 -4.24211,-1.71721l-14.54393,5.90529c-1.6553,0.67416 -2.43751,2.53765 -1.74943,4.15946zm21.06127,7.03101l-15.74483,0.00318c-1.79162,0 -3.24569,1.42465 -3.2392,3.18319c0,1.75855 1.45082,3.17683 3.2392,3.17683l15.74808,-0.00636c1.79487,0 3.24244,-1.42783 3.24244,-3.18001c0,-1.75855 -1.45407,-3.18319 -3.24569,-3.17683zm-2.26549,17.57912l-14.54717,-5.89575c-1.66179,-0.67416 -3.56052,0.0954 -4.24211,1.72039c-0.68484,1.62499 0.10062,3.4853 1.75592,4.15946l14.54717,5.89575c0.40896,0.16218 0.8309,0.2385 1.2431,0.2385c1.27556,0 2.48295,-0.73776 3.00226,-1.96207c0.68159,-1.62499 -0.10711,-3.48848 -1.75916,-4.15628zm-20.10379,4.49336c-1.26906,-1.24339 -3.32034,-1.24339 -4.5894,0.00318c-1.26906,1.24021 -1.26582,3.24998 0,4.49336l11.14569,10.90427c0.63291,0.6201 1.46056,0.93174 2.29146,0.93174s1.66504,-0.31164 2.29795,-0.93174c1.26906,-1.24657 1.26257,-3.25952 0,-4.49972l-11.14569,-10.90109zm-9.18854,7.51437c-0.68484,-1.62499 -2.58357,-2.39137 -4.24211,-1.72039c-1.6553,0.67416 -2.44076,2.53447 -1.75267,4.15946l6.03698,14.24647c0.51606,1.22431 1.72346,1.96207 3.00226,1.96207c0.41545,0 0.83739,-0.07632 1.2431,-0.24168c1.65855,-0.67098 2.44076,-2.53447 1.75267,-4.16264l-6.04023,-14.24329zm-14.66077,0.32754c-1.79487,0 -3.24569,1.42465 -3.24569,3.18001l0.01298,15.42625c0,1.75855 1.45731,3.17683 3.24569,3.17683c1.79487,0 3.24569,-1.42465 3.2392,-3.18001l-0.00974,-15.42943c0,-1.74901 -1.45731,-3.17683 -3.24244,-3.17365zm-10.43813,-2.02249c-1.6553,-0.6678 -3.55078,0.09858 -4.23887,1.72675l-6.01101,14.25601c-0.68159,1.62499 0.10711,3.4853 1.76241,4.15628c0.40571,0.16536 0.8244,0.24168 1.23985,0.24168c1.27231,0 2.48295,-0.74412 2.99902,-1.96843l6.01426,-14.26237c0.68484,-1.62181 -0.10711,-3.47894 -1.76565,-4.14992zm-8.84775,-5.77809c-1.27231,-1.24339 -3.32683,-1.23703 -4.59265,0.00636l-11.11973,10.91699c-1.26906,1.24657 -1.26257,3.25316 0.00649,4.49972c0.63291,0.61692 1.46056,0.92856 2.29146,0.92856c0.83414,0 1.66504,-0.31164 2.29795,-0.93174l11.12297,-10.92017c1.26257,-1.24339 1.26257,-3.25634 -0.00649,-4.49972zm-5.92014,-8.65282c-0.69133,-1.61863 -2.58681,-2.38819 -4.24211,-1.71721l-14.53744,5.91801c-1.65855,0.67416 -2.44076,2.53765 -1.75267,4.15946c0.51931,1.22431 1.72346,1.95889 2.99902,1.95889c0.4122,0 0.83739,-0.07632 1.2431,-0.24168l14.53744,-5.91801c1.65206,-0.68052 2.43751,-2.54083 1.75267,-4.15946zm-2.09671,-10.21421c0,-1.75855 -1.45082,-3.17683 -3.24569,-3.17683l-15.74483,0.01908c-1.79487,0 -3.24893,1.42465 -3.24244,3.18319c0.00325,1.75219 1.45731,3.18001 3.24569,3.17365l15.74808,-0.01908c1.79162,0 3.24569,-1.43101 3.2392,-3.18001zm-16.73477,-14.38321l14.55691,5.88303c0.40571,0.16854 0.8244,0.24168 1.23661,0.24168c1.27556,0 2.4862,-0.73776 3.00226,-1.96525c0.68809,-1.62499 -0.10386,-3.48848 -1.76565,-4.1531l-14.55042,-5.88303c-1.65855,-0.6678 -3.55403,0.10176 -4.23887,1.72357c-0.68809,1.62499 0.10711,3.47894 1.75916,4.1531zm20.10055,-4.50926c0.63291,0.61374 1.45731,0.92538 2.28821,0.92538s1.66504,-0.31164 2.30119,-0.9381c1.26906,-1.23703 1.26257,-3.25316 -0.01298,-4.49654l-11.14569,-10.88837c-1.26582,-1.24021 -3.32683,-1.23385 -4.5894,0.00954c-1.26906,1.24021 -1.26257,3.25634 0.00649,4.49654l11.15218,10.89155zm9.17556,-7.52709c0.51931,1.22113 1.72671,1.95571 2.99577,1.95571c0.41545,0 0.83739,-0.0795 1.24634,-0.24486c1.6553,-0.67416 2.444,-2.53765 1.75267,-4.15628l-6.04996,-14.24329c-0.68809,-1.62181 -2.59006,-2.38819 -4.24536,-1.71403c-1.6553,0.67734 -2.43751,2.54083 -1.74943,4.15946l6.04996,14.24329z" stroke-width="1.5" fill="#fff"/>
  <line stroke-linecap="null" stroke-linejoin="null" id="svg_2" y2="224.45313" x2="230.5" y1="310.45313" x1="232.5" fill-opacity="null" stroke-opacity="null" stroke-width="1.5" stroke="#000" fill="none"/>
 </g>
 <g>
  <title>Layer 1</title>
  <path stroke="#07f207" id="svg_3" d="m444.43468,59.07987c-0.54004,0 -0.81761,-0.67226 -0.81761,-1.47843c0,-0.67211 0.13877,-1.32465 0.54004,-1.32465c0.27758,0 0.69544,0.65254 0.8342,1.32465c0.27758,0.97858 0,1.47843 -0.55663,1.47843zm92.31347,38.35851c1.23551,0 1.51305,0.17241 0.81761,1.32449c-0.40127,0.80616 -1.23547,1.47827 -1.63674,1.47827c-0.41782,0 -0.8342,-0.67211 -0.8342,-1.47827c0,-0.82594 0.55667,-1.32449 1.65333,-1.32449zm-86.25829,-46.92109c-1.23547,-0.32619 -1.37428,-1.97797 0,-2.47667c0.69539,-0.15357 1.0967,0.32614 1.0967,1.32465c0,0.82584 -0.40131,1.30576 -1.0967,1.15203zm-15.40043,52.18091c1.65333,-0.47997 1.65333,-0.82495 1.0967,-1.95824c-0.41639,-0.82495 -0.55516,-1.82335 -0.27758,-2.1496c0.13877,-0.49959 0.8342,0 1.23547,0.97868c0.55663,1.32465 0.97297,1.4981 2.06968,0.67211c0.68036,-0.49866 1.23547,-0.82573 1.23547,-0.32614c0,0.32614 0.41786,0 0.95789,-0.67211c0.83425,-0.97868 0.97301,-3.12916 0.13881,-4.28129c-0.67885,-0.97868 -4.12427,-0.65244 -5.08217,0.49866c-0.55516,0.82599 -0.97301,0.65348 -1.51305,-0.82479c-0.8342,-2.45799 -0.8342,-2.80307 1.09666,-2.95665c1.65333,0 1.65333,0 0.27758,-0.9984c-0.69392,-0.47997 -1.37424,-1.47827 -1.37424,-2.13081c0,-1.65167 1.91579,-2.63035 2.74999,-1.47822c0.27758,0.47987 0.81766,0.97868 1.37428,0.97868c1.0967,0 6.33272,-5.58627 6.33272,-6.7384c0,-0.49954 0.54155,-0.82568 1.0967,-0.49954c0.68032,0.1734 1.91583,-0.32614 3.16789,-1.15213c1.77551,-1.32454 1.77551,-1.47827 0.81761,-3.62787c-0.67885,-1.47827 -1.51305,-1.97797 -3.44396,-1.97797c-2.19337,0 -2.74999,0.3263 -3.42884,2.30426c-0.27909,1.32449 -1.11325,2.30322 -1.65333,2.30322c-0.95789,0 -1.23547,-1.47739 -0.27758,-2.30322c0.41635,-0.3263 0.69392,-1.47827 0.69392,-2.6304c0,-1.80462 -0.27758,-2.13081 -2.06968,-1.65079c-1.7921,0.32614 -1.7921,0.17241 -1.37428,-2.30437c0.27758,-1.47822 0.67885,-2.80276 0.95794,-2.95649c0.27758,-0.17241 0.55511,-1.65079 0.55511,-3.12906c0,-2.9568 0.81913,-3.45546 2.33369,-1.32465c0.69388,1.15208 1.11178,1.32465 1.37424,0.32614c0.27758,-0.65244 1.25055,-0.80616 2.76511,-0.48002c2.0546,0.65254 2.19337,0.48002 1.91579,-1.47827c-0.13877,-1.15198 -0.27905,-2.47662 -0.41782,-2.80276c0,-0.49881 -0.67885,-1.15213 -1.49797,-1.65094c-1.65333,-0.82568 -2.06968,-2.80276 -0.55663,-2.80276c0.41786,0 0.81908,-0.3263 0.81908,-0.97972c0,-0.49881 0.83425,-0.82495 1.93091,-0.67221c1.51456,0.1734 2.33218,-0.47976 4.40185,-3.93507c1.51456,-2.47678 2.61122,-3.80132 2.75003,-3.12921c0.13877,0.82495 0.8342,1.30482 1.51452,1.30482c1.0967,0 1.23551,-0.47987 0.83425,-2.62947c-0.14028,-1.47838 -0.83425,-3.28279 -1.25206,-4.10878c-1.23551,-1.82408 -1.23551,-3.95489 0,-3.30261c0.97297,0.65348 4.00054,-1.15109 4.00054,-2.30317c0,-0.49959 0.40278,-0.82584 0.95789,-0.82584c0.55667,0 0.81913,0.99835 0.81913,2.30421c0,1.65079 0.27758,2.30333 0.97301,1.8233c0.54004,-0.34503 0.95794,-1.32465 0.95794,-1.97703c0,-1.97807 4.40181,-5.43343 5.49847,-4.45386c0.4179,0.3264 0.8342,0 0.97457,-1.15198c0.40123,-2.30421 2.88725,-4.10878 3.98391,-2.95665c0.55667,0.47987 1.09675,0.3263 1.23703,-0.17241c0.27754,-0.65342 1.37424,-1.15213 2.60971,-1.30596c1.23547,-0.17241 2.8888,-0.82584 3.58424,-1.49794c2.60971,-2.13081 5.22098,-1.97708 6.31764,0.32728c0.69544,1.65068 0.97297,1.65068 0.97297,0.49855c0,-1.47838 0.54159,-1.65079 3.84674,-1.15198c5.23606,0.65342 6.05518,0.65342 7.98609,-0.17257c1.23547,-0.47997 1.65329,-0.32624 1.65329,0.99825c0,0.82599 0.40131,1.47843 0.95794,1.47843c0.41635,0 0.81761,-0.48002 0.81761,-0.97962c0,-1.32449 2.21,-1.97703 4.14086,-1.32449c1.49797,0.65342 1.63674,0.82568 1.23547,5.2607c-0.13877,2.64919 0,4.45376 0.2625,4.45376c0.27754,0 0.55663,-1.15213 0.55663,-2.80292c0,-2.78413 1.51305,-3.93533 2.06968,-1.65084c0.13881,0.825 0.54004,0.49871 0.81761,-0.80611c0.69548,-3.45634 2.21,-1.65183 1.7921,2.13081c-0.4163,3.12906 -0.4163,3.12906 0.81917,1.97693c0.69539,-0.49871 1.23543,-1.80441 1.23543,-2.62947c0,-0.82589 0.4179,-1.80545 0.97306,-2.15053c1.09662,-0.65228 2.33365,1.82346 1.93087,3.62875c-0.13877,0.82511 -0.13877,1.47838 0.26246,1.47838c0.27909,0 0.55667,-0.47987 0.55667,-0.82584c0,-0.47997 0.68032,-0.65254 1.51452,-0.32614c1.79063,0.49871 2.05309,1.8232 0.54008,2.62936c-0.40127,0.34597 -0.81913,1.15213 -0.81913,1.82434c0,1.15213 0.27905,1.15213 1.7921,0c2.47094,-1.97703 3.56761,-1.82434 3.98551,0.32614c0.27754,1.15213 0.81908,1.65172 1.37424,1.15213c0.55663,-0.17252 1.7921,0.49959 2.75003,1.65079c0.8342,0.97956 2.06968,1.80457 2.6263,1.80457c0.81913,0 0.81913,0.82594 0.54004,3.13005c-0.27754,2.47678 -0.27754,2.80292 0.55667,1.80467c1.09666,-1.63216 1.51305,-1.47853 1.91583,0.82479c0.13877,1.15213 1.11174,1.97797 2.20844,2.47667c1.23547,0.32728 1.91583,1.15208 1.91583,2.1317c0,0.99835 0.4163,2.1496 0.8342,2.80302c1.0967,1.15198 0.81761,4.60733 -0.4179,5.75941c-0.4163,0.34508 -0.95785,0.17257 -1.09666,-0.32614c-0.27754,-0.4997 -1.23547,-0.4997 -3.02761,0c-2.8888,1.15109 -3.42884,1.47827 -2.74999,2.97533c0.41786,0.97868 5.22245,0.65254 7.84728,-0.49959c0.81913,-0.49876 1.0967,0 1.0967,2.30426c0,1.65068 -0.27758,2.95665 -0.69392,2.95665c-0.27909,0 -0.54155,0.49866 -0.54155,1.32449c0,1.97786 0.68036,1.80441 2.47246,-0.49881c0.95638,-1.32449 1.51301,-1.65167 2.19337,-0.82568c0.69392,0.82568 0.8342,0.82568 0.8342,-0.49881c0,-0.80715 -0.27909,-1.47827 -0.69539,-1.47827c-0.2625,0 -0.54159,-0.65342 -0.54159,-1.30596c0,-0.82573 0.40278,-1.47827 0.95789,-1.47827c0.41786,0 0.97301,0.32614 0.97301,0.80616c0,0.4998 0.54155,1.15208 1.23698,1.32465c0.95642,0.4997 1.23547,1.15213 1.09666,3.12916c-0.27905,3.78238 0.27762,4.93461 2.33218,4.28218c0.97301,-0.32728 1.51301,0 1.0967,0.65244c-0.12369,0.32614 0,1.15213 0.27758,1.49695c1.11325,0.97967 0.69539,3.28305 -0.54008,3.28305c-1.51452,0 -1.93091,0.82568 -1.11174,2.30411c0.55511,0.82584 0.97297,0.97868 1.51301,0.32624c1.25206,-1.65079 1.51456,-0.32624 1.65333,6.25926c0,3.30147 0.27758,5.93198 0.55516,5.93198c0.68032,0 0.41786,3.62875 -0.55516,5.10703c-0.54155,0.82495 -0.54155,1.63106 -0.13877,2.30317c0.97297,1.47843 0,5.75972 -1.23703,5.75972c-1.09662,0 -3.16634,3.12906 -3.16634,4.60743c0,1.80556 -1.77551,0 -2.19337,-1.97708c-0.41635,-1.80452 -0.41635,-1.80452 -0.69544,-0.49959c-0.26246,1.49799 1.23698,6.10543 2.48758,7.41113c0.81908,0.99851 -0.69544,2.64919 -1.79214,1.97708c-0.55667,-0.32614 -0.81913,-1.30482 -0.81913,-2.30322c0,-2.80276 -3.44396,-9.86829 -6.05518,-12.51738c-1.38932,-1.30596 -2.62483,-2.78424 -2.62483,-3.28289c0,-0.9984 -4.40332,-4.10878 -6.87427,-5.10713c-1.37579,-0.49959 -1.79214,-0.32619 -1.79214,0.99835c0,0.97868 -0.26246,1.30482 -0.81913,0.97868c-1.23547,-0.65254 -1.7921,0.82599 -0.69539,2.30426c1.51452,1.80452 1.25206,3.95489 -0.40127,3.12906c-1.11178,-0.49871 -1.25059,-0.3263 -0.8342,2.47673c0.13877,1.632 0.41786,3.78238 0.41786,4.76106c0,0.9984 0.27754,1.65094 0.55511,1.65094c0.40282,0 0.54155,-0.3263 0.2625,-0.82495c-0.13877,-0.4997 0.14032,-0.97962 0.69539,-0.97962c0.4179,0 0.81913,0.65332 0.81913,1.30576c0,0.67221 -0.54151,1.32449 -1.51452,1.15224c-0.81761,0 -1.51305,-0.48002 -1.51305,-0.80627c0,-1.4981 -3.70793,-11.69253 -4.80459,-13.18959c-1.23551,-1.63216 -0.41639,-2.13081 -10.1795,5.60578c-1.51301,1.15213 -3.16634,3.62875 -4.00054,5.43343c-0.68036,1.80441 -1.77702,3.62875 -2.33218,3.95489c-0.55663,0.3263 -2.61122,2.95665 -4.40336,5.75957c-7.70851,12.34393 -6.45645,13.8223 -5.91637,39.03072c2.33365,19.10189 2.33365,19.10189 2.33365,19.10189c-5.50003,0 -5.50003,0 -5.50003,0c-4.54062,0 -4.54062,0 -4.54062,0c0.41635,-17.62461 0.41635,-17.62461 0.41635,-17.62461c0.27754,-1.47728 0.41786,-4.4536 0.55667,-6.10454c0.13877,-0.97956 -3.86182,-5.26086 -3.72301,-6.23943c0,-0.82584 4.13935,1.47843 4.13935,0.65244c0.68032,-12.01779 0,-21.57867 -1.79214,-26.66696c-0.41635,-3.12921 -3.86177,-13.1886 -4.40181,-13.1886c-0.13881,0 -1.11178,-0.97956 -2.06968,-2.1317c-1.65337,-2.14949 -2.33218,-2.30333 -11.55525,-2.95665c-9.90188,-0.67122 -9.90188,-0.67122 -9.90188,-0.67122c-2.34725,2.30333 -2.34725,2.30333 -2.34725,2.30333c-1.37424,1.49794 -2.74999,2.47667 -3.1513,2.47667c-0.8342,0 -4.27963,3.45619 -5.7776,5.43311c-0.13877,0 -0.27754,-0.17226 -0.27754,-0.32614c-0.13881,0 -0.13881,0 -0.13881,-0.17252c-0.13877,-0.47987 -0.27905,-0.97956 -0.55663,-1.47827c0.8342,-0.82584 1.51452,-1.32543 1.7921,-1.15198c0.41635,0.32614 0.81913,0 0.81913,-0.82599c0,-0.82495 -0.81913,-1.15208 -3.01249,-0.82495c-2.62634,0.49881 -3.30666,0.67122 -3.72301,2.62952c-0.68036,0.99835 -0.81913,2.47673 -0.41635,3.62886c-0.14032,1.47827 -0.14032,2.47662 0,2.47662c0.13877,0 0.27754,-0.32614 0.69392,-0.67211c0,0.17257 0.13877,0.34597 0.27905,0.49959c-1.37575,0.49871 -2.07119,1.97708 -1.93091,3.45535c-0.69539,0.67211 -1.37575,0.99835 -2.20991,1.49706c0,0 0,-0.17241 -0.12373,-0.17241c0.54155,-1.47827 0.81913,-3.12921 0.95789,-5.60584c0.27909,-2.78424 0.13877,-4.60743 -0.27754,-4.60743c-0.27758,0 -0.55663,0.67211 -0.55663,1.65063c0.13873,0.82599 -0.12373,1.65094 -0.67889,1.80467c-0.41786,0.17241 -0.69539,-0.15373 -0.69539,-0.97868c0,-1.97797 -0.54008,-1.97797 -1.77706,-0.1734c-0.55511,0.67211 -1.65182,1.47838 -2.60971,1.82434c-1.25206,0.47987 -1.65333,0.15357 -2.20996,-1.65094c-0.41635,-1.47827 -0.69392,-3.13005 -0.41635,-3.78248c0.13877,-0.82584 0.13877,-1.49706 -0.40127,-1.49706c-1.51456,0 -0.41786,-2.63051 1.37424,-3.1301zm11.83279,-37.85891c-0.8342,-0.17241 -1.51456,-0.65244 -1.7921,-1.32454c-0.13881,-0.97956 -0.27758,-0.97956 -0.27758,0c0,0.67211 -0.55663,1.15213 -1.0967,1.32454c-0.97297,0 -0.97297,0.17252 0.13881,0.82599c0.6788,0.32614 1.37424,0.82479 1.51301,0.82479c0.12369,0 0.81913,-0.49866 1.51456,-0.82479c1.23547,-0.82599 1.23547,-0.82599 0,-0.82599zm109.08815,26.51323c0.2625,0.3263 0.54008,-0.1734 0.54008,-0.99835c0,-0.65332 -0.27758,-1.30586 -0.54008,-1.30586c-0.41782,0 -0.69539,0.32624 -0.69539,0.80616c0,0.4997 0.27758,1.1718 0.69539,1.49805zm-0.97297,1.47838c-0.13877,-0.4997 -0.81913,-1.15208 -1.37575,-1.15208c-0.40127,0 -0.67885,0.65238 -0.40127,1.15208c0.12369,0.49871 0.68032,0.825 1.23547,0.825c0.54155,0 0.68032,-0.3263 0.54155,-0.825zm-1.23547,7.41025c0.41635,0 0.97297,-0.17241 0.97297,-0.32614c0,-0.34597 -0.55663,-0.67211 -0.97297,-0.9984c-0.54155,-0.32624 -0.95794,-0.15373 -0.95794,0.3263c0,0.49959 0.41639,0.99825 0.95794,0.99825zm1.0967,-15.64644c0.55511,-0.3264 0.83416,-0.82594 0.69392,-1.30596c-0.41639,-1.17076 -2.74856,-1.17076 -2.74856,0c0,1.30596 0.81766,1.80467 2.05464,1.30596zm-7.55462,-12.34507c-0.69544,0.4997 -1.11178,1.47838 -0.97306,1.97797c0.69544,1.30498 1.5146,0.97868 2.20849,-1.15213c0.68036,-1.97797 0.40278,-2.30411 -1.23543,-0.82584zm-2.62634,25.36116c3.5842,4.43487 3.72301,4.60743 3.72301,3.12916c0,-0.82495 -0.27758,-1.49706 -0.69544,-1.49706c-0.40123,0 -1.09666,-0.82599 -1.51301,-1.80452c-0.40131,-0.97972 -1.23547,-1.97812 -1.91583,-1.97812c-1.25055,0 -1.25055,0.17345 0.40127,2.15053zm-2.88733,-7.75632c0.83273,0 1.23551,-0.32614 0.69397,-0.47992c-0.41635,-0.32624 -1.0967,-0.32624 -1.51305,0c-0.4179,0.15378 0,0.47992 0.81908,0.47992zm-3.98546,-22.38484c0.41635,0.49881 1.65182,1.15125 2.74848,1.47843c1.93095,0.49866 2.06972,0.49866 0.97301,-0.82584c-1.25055,-1.63216 -4.67939,-2.13081 -3.72149,-0.65259zm-8.38887,-27.31924c-0.41635,0.47987 -0.55511,1.47827 -0.41635,2.13066c0.27758,1.32465 1.0967,0.17257 1.0967,-1.80452c0,-0.9984 -0.13881,-1.15213 -0.68036,-0.32614zm4.12427,35.55559c1.0967,0.82485 1.51456,0.82485 2.07123,-0.32718c1.09666,-1.80462 0.40123,-2.62947 -1.65337,-1.47822c-1.65333,0.80705 -1.65333,0.80705 -0.41786,1.8054zm-2.74848,-8.23634c2.06968,-1.80436 2.06968,-1.80436 0.41635,-1.80436c-1.11178,0 -1.93091,0.65228 -2.34725,1.80436c-0.2625,1.15125 -0.54155,1.80467 -0.40278,1.80467c0,0 1.0967,-0.97967 2.33369,-1.80467zm-3.02761,26.6858c0.95638,1.80467 2.60975,1.80467 2.06968,-0.17252c-0.13877,-0.65332 -0.27905,-1.47827 -0.27905,-1.65172c0,-0.15373 -0.55516,-0.15373 -1.23547,0.17345c-1.11178,0.32624 -1.11178,0.82495 -0.55516,1.65079zm-4.26455,-6.75792c1.09666,1.80462 1.65333,1.97703 2.8888,0.65254c0.81913,-0.82495 0.81913,-0.82495 0,-0.97868c-0.41635,0 -1.51305,-0.17345 -2.47094,-0.4997c-1.37575,-0.65244 -1.37575,-0.65244 -0.41786,0.82584zm-0.13877,-17.9508c0.69539,0 1.51452,-2.63035 1.0967,-3.4553c-0.54008,-0.82584 -1.65186,0.49866 -1.65186,1.97703c0,0.82589 0.27758,1.47827 0.55516,1.47827zm-6.73403,11.19283c-0.8342,0.67211 -0.69539,0.82599 0.40131,0.82599c0.69539,0 1.51301,-0.32728 1.7921,-0.82599c0.4163,-1.3057 -0.95794,-1.3057 -2.19341,0zm0.13881,14.49456c0.12369,0.17345 0.54004,-0.17252 0.95789,-0.97868c0.4163,-0.67211 1.65186,-1.49794 2.60971,-1.82424c1.23547,-0.49881 1.79214,-1.30492 1.79214,-2.47673c0,-2.78309 -1.93091,-1.9583 -3.98555,1.65178c-0.83416,1.82335 -1.51301,3.30173 -1.3742,3.62787zm-1.51452,-7.58287c1.23543,-1.80441 1.23543,-2.1317 0.26242,-2.6304c-1.09666,-0.65254 -1.91428,0.82599 -1.91428,3.45535c-0.14028,1.97797 -0.14028,1.97797 1.65186,-0.82495zm-2.20849,-19.42902c0.13877,1.32449 0.41635,1.15208 1.23543,-1.30586c0.97306,-2.62952 0.97306,-2.97549 0.13881,-2.97549c-0.54004,0 -1.0967,0.49881 -1.23547,1.3247c-0.27758,0.65238 -0.27758,2.15048 -0.13877,2.95665zm-0.68036,-13.49621c0,0.67122 0.26246,2.30333 0.54155,3.45535c0.41635,2.30421 0.41635,2.30421 0.8342,0.32624c0.54004,-1.97693 0,-4.93357 -0.8342,-4.93357c-0.40278,0 -0.54155,0.49855 -0.54155,1.15198zm-9.63791,5.43238c-0.68032,1.15213 -0.68032,2.30426 -0.14028,5.75957c0.27909,2.47667 0.97453,4.9534 1.37575,5.43343c0.69544,0.82584 0.8342,0 0.97297,-5.10624c0,-6.23959 -0.69539,-8.2174 -2.20844,-6.08675zm1.23547,17.4521c0.13881,0.3263 0.41635,-0.32624 0.27758,-1.30581c0,-0.9984 -0.13877,-1.15213 -0.41635,-0.49871c-0.12373,0.65244 -0.12373,1.47827 0.13877,1.80452zm4.95848,-15.47413c-0.13877,0.3263 -0.13877,2.63051 0.27758,5.10624c0.41786,4.28218 0.54155,4.45459 0.68036,1.32543c0.13877,-5.10713 -0.13881,-7.58375 -0.95794,-6.43167zm-4.6809,46.44112c0.8342,-1.97797 2.20849,-5.2797 3.16638,-7.25751c1.09666,-2.13097 1.7921,-4.93373 2.06968,-7.73665c0.40278,-4.43502 0.40278,-4.43502 0.40278,-4.43502c-1.65333,2.45794 -1.65333,2.45794 -1.65333,2.45794c-0.81913,1.32465 -1.37428,2.80292 -1.37428,3.30173c0,1.30576 -2.61122,9.54194 -3.43035,11.02032c-0.41635,0.82479 -1.11178,2.64919 -1.23547,3.95489c-0.69544,3.7817 0.54155,3.12916 2.0546,-1.3057zm-9.76311,16.9524c0.41786,3.28279 0.41786,3.28279 1.79214,-3.78253c0.81913,-3.80137 2.0546,-9.88697 2.8888,-13.66956c1.09666,-4.78 1.51452,-8.73489 1.51452,-14.32189c0,-7.25678 -0.14028,-7.41051 -1.23694,-6.58452c-2.48606,2.13076 -3.86182,8.06274 -4.41697,19.58171c-0.26246,5.93312 -0.54155,11.8651 -0.81908,13.17096c-0.13881,1.32454 0,3.80127 0.27754,5.60584zm0.27909,-42.14114c0.54004,1.6321 1.0967,2.95665 1.0967,2.95665c0.13877,0 0.81757,-0.9984 1.37424,-2.30411c0.69539,-1.15119 1.7921,-2.47574 2.20849,-2.95576c1.63821,-1.49794 2.05456,-6.10538 0.68032,-9.23454c-1.0967,-2.80292 -4.12427,-5.93302 -4.68094,-4.93461c-0.27754,0.32624 -0.6788,3.45634 -0.95789,7.08421c-0.55511,5.43327 -0.55511,7.08494 0.27909,9.38816zm-0.8342,-37.70597c0.27758,0.32718 0.55511,0.15373 0.55511,-0.34493c0,-0.65342 -0.27754,-1.30596 -0.55511,-1.63216c-0.41786,-0.34592 -0.68036,-0.17252 -0.68036,0.48002c0,0.49871 0.2625,1.15213 0.68036,1.49706zm-44.56603,44.27169c1.91579,0.1734 1.91579,0.1734 1.91579,0.1734c1.93091,0 3.86182,-2.1317 3.86182,-3.95489c0,-1.15213 -0.13877,-1.15213 -5.7776,3.78149zm0.81913,-4.60749c0,0.49985 0.27758,0.9984 0.69544,0.9984c0.67885,0 2.60971,-2.95665 2.19337,-3.4553c-0.41786,-0.67211 -2.8888,1.47822 -2.8888,2.4569zm1.51452,-11.34641c2.06972,3.28367 3.02761,3.60992 4.12427,1.47822c1.11178,-1.97693 0.13881,-3.30157 -3.16785,-3.7816c-2.74852,-0.4997 -2.74852,-0.4997 -0.95642,2.30338zm-1.51452,-9.23371c0,0.34493 0.97297,1.15109 2.06968,1.8232c5.08221,3.12921 6.05518,3.12921 5.91637,0.15388c0,-1.80467 -2.06968,-5.75967 -2.8888,-5.75967c-0.97297,0 -5.09725,3.12916 -5.09725,3.78259zm7.43093,23.38319c1.51305,0 1.65182,-0.49881 0.41635,-1.30498c-0.55663,-0.1734 -1.0967,0 -1.23547,0.48002c-0.27909,0.49855 0.13877,0.82495 0.81913,0.82495zm1.0967,-38.6848c-0.95794,-0.82594 -2.19492,-1.15208 -2.75003,-0.82594c-0.95789,0.65342 -0.81913,0.82594 0.55511,1.32449c0.68036,0.32728 2.07123,0.65348 2.75003,0.80721c0.81913,0 0.81913,-0.32718 -0.55511,-1.30576zm-0.12369,5.93198c0.81757,0 0.95789,-0.17252 0.40127,-0.67122c-0.40127,-0.15362 -0.95794,-0.15362 -1.23551,0.17257c-0.13877,0.32614 0.27758,0.65254 0.83425,0.49866zm0.81757,3.78264c-1.93087,0 -1.93087,0.15357 -0.81757,1.47822c1.37424,1.47827 1.77551,1.65068 2.33218,0.65244c0.95785,-1.30498 0.27754,-2.13066 -1.5146,-2.13066zm2.75008,-18.60334c-0.55667,-0.82584 -0.69544,0.65254 -0.41639,2.45706c0.13877,1.15213 0.69392,2.15038 0.97301,2.15038c0.54004,0 0.13877,-3.62875 -0.55663,-4.60743zm4.40181,21.73224c-0.27754,0.15388 0.41786,1.15213 1.23698,1.97807c0.8342,0.82495 1.51301,1.15114 1.51301,0.65244c0,-1.15198 -2.33213,-3.30246 -2.74999,-2.63051zm-3.44396,1.15213c-1.23547,1.15224 -0.54004,4.10873 1.25059,4.60754c0.95789,0.32619 2.47246,1.65084 3.43035,2.95654c0.8342,1.32465 1.51301,1.82434 1.51301,1.32465c0,-1.65079 -5.49851,-9.56083 -6.19395,-8.88873zm5.63884,13.66972c-0.81908,-2.65018 -1.77702,-3.95515 -3.56916,-4.78099c-1.37424,-0.65244 -2.74999,-0.99825 -3.16634,-0.82485c-0.41786,0.17241 1.23547,2.30322 3.58424,4.7799c4.40181,4.28129 4.40181,4.28129 3.15126,0.82594zm7.30573,-25.36126c-0.27758,0 -0.55667,0.65254 -0.55667,1.30498c0,0.82584 0.27909,1.32465 0.55667,1.32465c0.40127,0 0.68036,-0.49881 0.68036,-1.32465c0,-0.65244 -0.27909,-1.30498 -0.68036,-1.30498zm-1.25055,13.49621c0,1.15198 2.34725,0.32624 3.30515,-1.15213c1.37428,-2.47662 1.23547,-3.12916 -0.55663,-3.12916c-1.23547,0 -2.74852,2.30432 -2.74852,4.28129zm4.00058,-35.55574c-0.41786,2.13081 -0.69544,3.93533 -0.55663,4.10878c0.41782,0.65254 1.51456,-4.28119 1.51456,-6.25916c0,-0.82495 -0.4179,0.17345 -0.95794,2.15038zm7.15189,33.25148c-0.69544,0 -1.23551,0.32728 -1.23551,0.97956c0,0.49881 0.40127,0.82599 0.81761,0.82599c0.55663,0 1.0967,-0.32718 1.23698,-0.82599c0.27758,-0.65228 -0.14028,-0.97956 -0.81908,-0.97956zm-1.65337,30.94815c0.81913,2.97637 2.0546,5.75957 2.75003,6.43167c0.69544,0.49881 2.06968,2.80302 2.8888,5.10713c0.81913,2.30333 1.65333,4.10789 1.79214,4.10789c0.6788,0 -0.69544,-15.147 -1.65333,-19.75532c-0.83425,-3.95401 -1.09675,-7.58287 -0.95794,-13.34243c0.12369,-4.28119 0,-8.06378 -0.27754,-8.38997c-0.13881,-0.32624 -1.0967,-0.32624 -1.93091,0c-1.51456,0.65244 -1.65333,1.15213 -1.65333,4.78089c0,2.78325 -0.27762,4.28129 -0.95794,4.93357c-1.93087,1.47843 -1.7921,9.86834 0,16.12656zm-3.98546,-22.05849c-0.27758,-2.47667 -0.55511,-2.80292 -2.06968,-2.80292c-1.79214,0 -1.79214,0.17252 -1.65333,3.62787c0,2.1317 0.27905,4.60832 0.41782,5.75951c0.13881,1.15213 0.68036,2.30411 1.23551,2.47667c1.09666,0.82594 2.33213,-4.93357 2.06968,-9.06114zm-2.06968,16.62522c-1.23551,-1.97708 -2.06968,-4.10789 -2.19341,-4.60743c0,-0.65244 -0.69539,-2.30322 -1.51305,-3.7816c-0.8342,-1.47827 -1.7921,-3.30251 -2.20996,-3.95505c-1.37424,-2.30411 -1.0967,-0.32614 0.41786,4.78c0.95789,3.45619 2.60975,6.5854 4.54062,9.21575c3.56912,4.45371 3.98551,3.62803 0.95794,-1.65167zm-2.19341,8.08246c1.49797,0 1.37428,-0.17241 -0.69539,-2.80276c-1.37428,-1.65094 -2.33218,-3.45546 -2.33218,-4.28135c0,-0.65238 -1.79214,-2.97543 -3.86177,-5.10624c-2.05464,-2.15033 -3.98555,-4.28114 -4.26308,-4.93446c-0.27909,-0.82495 -0.41786,-0.82495 -0.41786,0.15373c0,0.9984 -0.67885,1.15198 -2.8888,0.65244c-1.51305,-0.3263 -2.74852,-0.3263 -2.74852,-0.15284c0,0.32624 0.55511,2.30333 1.11178,4.28114c0.95794,3.28294 1.37424,3.95515 4.40185,5.26003c1.91583,0.82584 4.94336,2.80287 6.87427,4.28114c1.79214,1.4981 3.98551,2.64919 4.81971,2.64919zm-21.47216,5.587c0.55663,0 1.37575,-0.32614 1.93087,-0.82568c0.95794,-1.15125 0.14032,-1.15125 -1.65182,0c-0.81913,0.49954 -0.95789,0.65327 -0.27905,0.82568zm-1.51305,-4.10873c1.37428,-0.67112 5.7776,-1.32454 9.77819,-1.32454c7.55315,-0.15373 9.06767,-0.65228 6.04006,-1.65079c-0.95785,-0.32614 -3.15126,-1.15213 -4.94336,-1.97708c-3.16638,-1.47827 -9.63942,-0.97956 -10.31827,0.67138c-0.14028,0.32702 -0.8342,0.49954 -1.51452,0.32702c-1.37428,-0.49959 -2.75003,0.82506 -3.16638,3.45546c-0.55663,2.13066 0.41635,2.30411 4.12427,0.49855zm-10.99858,3.78259c0.27758,1.32465 1.65333,1.47827 2.75003,0.32614c0.6788,-0.65238 0.6788,-0.97852 0,-1.97693c-0.55663,-0.97972 -0.95789,-0.97972 -1.7921,-0.15373c-0.55663,0.48002 -0.95794,1.30498 -0.95794,1.80452zm-4.40185,11.51913c0.54008,0 0.81766,0.49881 0.54008,1.47838c-0.12373,0.67211 -0.54008,1.32454 -0.81913,1.32454c-0.41635,0 -0.67885,-0.65244 -0.67885,-1.32454c0,-0.80616 0.40127,-1.47838 0.95789,-1.47838z" stroke-width="1.5" fill="#16aa16"/>
 </g>
</svg>